<svg xmlns="http://www.w3.org/2000/svg" viewBox="0 0 24 24" fill="currentColor" class="w-6 h-6">
  <path d="M12.04 2C7.34 2 3.58 5.76 3.58 10.46c0 1.5.4 2.92 1.18 4.17L2 22l6.3-1.65c1.18.64 2.52 1 3.74 1 4.7 0 8.46-3.76 8.46-8.46S16.74 2 12.04 2zm0 1.67c3.86 0 6.99 3.13 6.99 6.99 0 3.86-3.13 6.99-6.99 6.99-1.24 0-2.42-.32-3.47-.9L4.6 19.4l1.3-3.9c-.7-1.1-1.08-2.38-1.08-3.74 0-3.86 3.13-6.99 6.99-6.99zm-.04 2.6c-2.3 0-4.18 1.88-4.18 4.18 0 1.1.43 2.12 1.18 2.88l.1.1 1.03 1.03.1.1c.2.2.4.3.6.3.2 0 .4-.1.6-.3l.1-.1 1.03-1.03.1-.1c.76-.76 1.18-1.78 1.18-2.88 0-2.3-1.88-4.18-4.18-4.18zm2.2 5.8c-.1.1-.2.2-.3.2-.1 0-.2-.1-.3-.2l-.7-.7c-.1-.1-.2-.2-.2-.3 0-.1.1-.2.2-.3l.7-.7c.1-.1.2-.2.3-.2.1 0 .2.1.3.2l.7.7c.1.1.2.2.2.3 0 .1-.1.2-.2.3l-.7.7z"/>
</svg>